<svg xmlns="http://www.w3.org/2000/svg" viewBox="0 0 512 512">
  <g fill="#fff">
    <!-- teeth -->
    <g>
      <rect x="236" y="26" width="40" height="86" rx="10" transform="rotate(0 256 256)"/>
      <rect x="236" y="26" width="40" height="86" rx="10" transform="rotate(30 256 256)"/>
      <rect x="236" y="26" width="40" height="86" rx="10" transform="rotate(60 256 256)"/>
      <rect x="236" y="26" width="40" height="86" rx="10" transform="rotate(90 256 256)"/>
      <rect x="236" y="26" width="40" height="86" rx="10" transform="rotate(120 256 256)"/>
      <rect x="236" y="26" width="40" height="86" rx="10" transform="rotate(150 256 256)"/>
      <rect x="236" y="26" width="40" height="86" rx="10" transform="rotate(180 256 256)"/>
      <rect x="236" y="26" width="40" height="86" rx="10" transform="rotate(210 256 256)"/>
      <rect x="236" y="26" width="40" height="86" rx="10" transform="rotate(240 256 256)"/>
      <rect x="236" y="26" width="40" height="86" rx="10" transform="rotate(270 256 256)"/>
      <rect x="236" y="26" width="40" height="86" rx="10" transform="rotate(300 256 256)"/>
      <rect x="236" y="26" width="40" height="86" rx="10" transform="rotate(330 256 256)"/>
    </g>

    <!-- body ring + hole -->
    <path fill-rule="evenodd"
      d="M256 66a190 190 0 1 0 0 380a190 190 0 1 0 0-380zm0 120a70 70 0 1 1 0 140a70 70 0 1 1 0-140z"/>
  </g>
</svg>
