<svg xmlns="http://www.w3.org/2000/svg" viewBox="0 0 512 512">
  <g fill="#fff">
    <g>
      <rect x="236" y="44" width="40" height="78" rx="10" transform="rotate(0 256 256)"/>
      <rect x="236" y="44" width="40" height="78" rx="10" transform="rotate(36 256 256)"/>
      <rect x="236" y="44" width="40" height="78" rx="10" transform="rotate(72 256 256)"/>
      <rect x="236" y="44" width="40" height="78" rx="10" transform="rotate(108 256 256)"/>
      <rect x="236" y="44" width="40" height="78" rx="10" transform="rotate(144 256 256)"/>
      <rect x="236" y="44" width="40" height="78" rx="10" transform="rotate(180 256 256)"/>
      <rect x="236" y="44" width="40" height="78" rx="10" transform="rotate(216 256 256)"/>
      <rect x="236" y="44" width="40" height="78" rx="10" transform="rotate(252 256 256)"/>
      <rect x="236" y="44" width="40" height="78" rx="10" transform="rotate(288 256 256)"/>
      <rect x="236" y="44" width="40" height="78" rx="10" transform="rotate(324 256 256)"/>
    </g>
    <path fill-rule="evenodd"
      d="M256 82a174 174 0 1 0 0 348a174 174 0 1 0 0-348zm0 118a64 64 0 1 1 0 128a64 64 0 1 1 0-128z"/>
  </g>
</svg>
