<svg xmlns="http://www.w3.org/2000/svg" viewBox="0 0 100 100">
  <g fill="#e8e8e8">
    <circle cx="50" cy="50" r="28"/>
    <g transform="translate(50 50)">
      <rect x="-7" y="-46" width="14" height="18" rx="2"/>
      <rect x="-7" y="-46" width="14" height="18" rx="2" transform="rotate(36)"/>
      <rect x="-7" y="-46" width="14" height="18" rx="2" transform="rotate(72)"/>
      <rect x="-7" y="-46" width="14" height="18" rx="2" transform="rotate(108)"/>
      <rect x="-7" y="-46" width="14" height="18" rx="2" transform="rotate(144)"/>
      <rect x="-7" y="-46" width="14" height="18" rx="2" transform="rotate(180)"/>
      <rect x="-7" y="-46" width="14" height="18" rx="2" transform="rotate(216)"/>
      <rect x="-7" y="-46" width="14" height="18" rx="2" transform="rotate(252)"/>
      <rect x="-7" y="-46" width="14" height="18" rx="2" transform="rotate(288)"/>
      <rect x="-7" y="-46" width="14" height="18" rx="2" transform="rotate(324)"/>
    </g>
  </g>
  <circle cx="50" cy="50" r="12" fill="#111"/>
</svg>
